<svg xmlns="http://www.w3.org/2000/svg" viewBox="0 0 512 512">
  <defs>
    <linearGradient id="bgGrad" x1="0" y1="0" x2="512" y2="512" gradientUnits="userSpaceOnUse">
      <stop offset="0%" stop-color="#7C3AED"/>
      <stop offset="100%" stop-color="#4F46E5"/>
    </linearGradient>
    <linearGradient id="docGrad" x1="160" y1="80" x2="380" y2="440" gradientUnits="userSpaceOnUse">
      <stop offset="0%" stop-color="#FFFFFF"/>
      <stop offset="100%" stop-color="#EDE9FE"/>
    </linearGradient>
  </defs>

  <rect x="32" y="32" width="448" height="448" rx="96" fill="url(#bgGrad)"/>

  <rect x="152" y="96" width="208" height="320" rx="14" fill="url(#docGrad)"/>

  <path d="M316 96 L360 96 L360 140 Z" fill="#C4B5FD" opacity="0.6"/>

  <rect x="184" y="132" width="80" height="10" rx="5" fill="#7C3AED" opacity="0.8"/>
  <rect x="184" y="156" width="52" height="6" rx="3" fill="#A78BFA" opacity="0.5"/>

  <rect x="184" y="180" width="144" height="2" rx="1" fill="#DDD6FE"/>

  <rect x="184" y="200" width="112" height="8" rx="4" fill="#C4B5FD" opacity="0.6"/>
  <rect x="308" y="200" width="20" height="8" rx="4" fill="#7C3AED" opacity="0.4"/>

  <rect x="184" y="222" width="96" height="8" rx="4" fill="#C4B5FD" opacity="0.5"/>
  <rect x="308" y="222" width="20" height="8" rx="4" fill="#7C3AED" opacity="0.35"/>

  <rect x="184" y="244" width="104" height="8" rx="4" fill="#C4B5FD" opacity="0.4"/>
  <rect x="308" y="244" width="20" height="8" rx="4" fill="#7C3AED" opacity="0.3"/>

  <rect x="184" y="272" width="144" height="2" rx="1" fill="#DDD6FE"/>

  <rect x="184" y="288" width="36" height="10" rx="5" fill="#A78BFA" opacity="0.6"/>
  <rect x="264" y="288" width="64" height="10" rx="5" fill="#7C3AED" opacity="0.9"/>

  <circle cx="340" cy="380" r="36" fill="#7C3AED"/>
  <path d="M320 380 L333 393 L360 366" stroke="#FFFFFF" stroke-width="7" stroke-linecap="round" stroke-linejoin="round" fill="none"/>

  <circle cx="108" cy="160" r="6" fill="#FFFFFF" opacity="0.15"/>
  <circle cx="96" cy="200" r="4" fill="#FFFFFF" opacity="0.1"/>
  <circle cx="404" cy="300" r="5" fill="#FFFFFF" opacity="0.12"/>
  <circle cx="416" cy="260" r="3" fill="#FFFFFF" opacity="0.08"/>
</svg>
